# xmcd CD database file
#
# Track frame offsets:
#	150
#	20028
#	45535
#	72862
#	95951
#	128910
#	150840
#	164192
#	179945
#	199184
#
# Disc length: 2926 seconds
#
# Revision: 0
# Processed by: cddbd v1.5.2PL0 Copyright (c) Steve Scherf et al.
# Submitted via: CDex 1.70beta2
#
DISCID=940b6c0a
DTITLE=Afro Latin Vintage Orchestra - Ayodegi
DYEAR=2010
DGENRE=Jazz
TTITLE0=Ayodegi
TTITLE1=Orient Express
TTITLE2=Mamadou
TTITLE3=Theme Jazz
TTITLE4=Fusion
TTITLE5=Presentations
TTITLE6=Oldskool Trip
TTITLE7=JB and Ben on Faya
TTITLE8=Superstar
TTITLE9=TNT
EXTD=YEAR: 2010
EXTT0=
EXTT1=
EXTT2=
EXTT3=
EXTT4=
EXTT5=
EXTT6=
EXTT7=
EXTT8=
EXTT9=
PLAYORDER=
